<svg width="116" height="30" viewBox="0 0 116 30" fill="none" xmlns="http://www.w3.org/2000/svg">
<path d="M15 7.5C12.5 7.9216 9 6.5 7.30182 6C39.7585 6 100.489 6.21769 105.655 7.08899C112.113 8.1781 111.13 15.8021 110.633 20.1585C110.449 21.7796 107.156 21.2476 107.156 16.8912C107.156 14.7129 102.685 15.2575 100.698 15.8021C98.7106 16.3466 101.691 10.3565 98.7106 10.901C95.7299 11.4456 95.7705 13.7813 91.7452 15.2574C88.7748 16.3466 85.4404 8.93892 83.807 11.4456C81.3231 15.2574 80.4951 12.1717 79.8327 11.4456C79.6671 11.0825 78.9385 11.0099 77.3488 11.4456C75.759 11.8812 71.8841 9.99343 71.3873 9.26735C70.8905 9.26735 67.9098 10.901 65.4259 13.6238C62.1486 17.2163 57.3117 12.1717 55.9869 10.901C54.4966 9.63039 52.5571 5.61415 49.5287 10.3565C46.0512 15.8021 42.7393 10.7195 42.0769 9.26735C39.0962 15.8021 33.6315 12.5347 32.6379 10.3565C30.6508 15.8021 28.1669 12.5347 27.1733 10.901C24.4177 6.37009 22.5 12 20.5 13C18.5221 13.9889 16.429 12.5 15 10.3565C13.9761 8.82059 21.4582 6.41088 15 7.5Z" fill="black"/>
<path d="M6.50001 7C4 7 4.49999 5 6.49998 5C39.1666 5 100.79 5.19988 105.99 5.99988C112.49 6.99988 111.5 14 111 18C110.814 19.4884 107 20 107 16C107 14 103 13.5 101 14C99 14.5 101.49 9.99988 98.4895 10.4999C95.4895 10.9999 95.9895 11.9999 91.9895 13.4999C87.9895 14.9999 85.9895 8.99988 83.9895 10.9999C82.3895 12.5999 80.6562 11.6665 79.9895 10.9999C79.8229 10.6665 79.0895 10.0999 77.4895 10.4999C75.8895 10.8999 72 9.66655 71.5 8.99988C71 8.99988 69 9.59988 65 11.9999C61 14.3999 57.3333 11.6665 56 10.4999C54.5 9.33321 51.3 8.09988 48.5 10.4999C45.7 12.8999 42.6667 10.3332 42 8.99988C37.5 13.4999 33.8333 11.3332 32.5 9.99988C31 13.4999 28 11.4999 27 10.4999C26 9.49988 22.5 10 20.5 11.5C18.8029 12.7728 15.7927 12.1191 15 10.5C14.5105 9.50012 13.0765 7 6.50001 7Z" fill="#D6C0FE"/>
<path d="M109.923 15.1799C111.961 11.4721 111.855 7.17859 115.54 2.58471C116.491 1.40049 115.636 0.161941 114.087 0.480641C114.029 0.492484 113.972 0.512399 113.918 0.53584C106.834 3.61681 103.494 4.00507 101.613 5.71552C99.696 7.4583 106.258 12.8938 109.923 15.1799Z" fill="#E65A5A"/>
<path d="M110.202 14.9831C110.567 14.7955 110.846 13.9147 111.132 13.6206C111.815 12.9179 111.952 12.0723 111.454 11.6348L103.581 4.74007C102.988 4.21918 101.75 4.47926 100.914 5.27618C100.838 5.34879 100.755 5.41452 100.663 5.46495L100.645 5.47464C100.553 5.52507 100.467 5.58888 100.4 5.66942C99.8444 6.32945 99.7529 7.07608 100.193 7.4872L108.231 14.9925C108.663 15.396 109.468 15.3608 110.202 14.9831Z" fill="white"/>
<circle cx="14.5" cy="7.5" r="0.5" fill="white"/>
<circle cx="19.5" cy="7.5" r="0.5" fill="white"/>
<circle cx="29.5" cy="9.5" r="0.5" fill="white"/>
<circle cx="35.5" cy="7.5" r="0.5" fill="white"/>
<circle cx="47.5" cy="8.5" r="0.5" fill="white"/>
<circle cx="56.5" cy="7.5" r="0.5" fill="white"/>
<circle cx="69.5" cy="7.5" r="0.5" fill="white"/>
<circle cx="82.5" cy="8.5" r="0.5" fill="white"/>
<circle cx="95.5" cy="8.5" r="0.5" fill="white"/>
<circle cx="62.5" cy="8.5" r="0.5" fill="white"/>
<circle cx="75.5" cy="8.5" r="0.5" fill="white"/>
<circle cx="90.5" cy="10.5" r="0.5" fill="white"/>
</svg>
