<svg width="1em" height="1em" viewBox="0 0 24 24" fill="none" xmlns="http://www.w3.org/2000/svg">
<rect width="24" height="24" rx="12" fill="#F9F9FE"/>
<path d="M4 8.31084C4 5.93003 5.93003 4 8.31084 4C10.12 4 11.9822 5.21878 12.5916 7.04695L11.9822 9.48451L10.154 11.9221L5.61656 11.6762C4.63104 10.8862 4 9.67219 4 8.31084Z" fill="#BAD9FF"/>
<path d="M10.217 7.01709V7.38272" stroke="#F9F9FE" stroke-linecap="round" stroke-linejoin="round"/>
<path d="M7.19995 7.01709V7.38272" stroke="#F9F9FE" stroke-linecap="round" stroke-linejoin="round"/>
<path d="M20 10.5C20 12.9853 17.9853 15 15.5 15L11 10.5C11 8.01472 13.0147 6 15.5 6C17.9853 6 20 8.01472 20 10.5Z" fill="#FAD366"/>
<path d="M18.075 9.375V9.9375" stroke="#F9F9FE" stroke-linecap="round" stroke-linejoin="round"/>
<path d="M14.9248 9.375V9.9375" stroke="#F9F9FE" stroke-linecap="round" stroke-linejoin="round"/>
<rect x="5" y="9" width="11" height="11" rx="5" fill="#9668EC"/>
<path d="M12 13V14" stroke="#F9F9FE" stroke-linecap="round" stroke-linejoin="round"/>
<path d="M9 13V14" stroke="#F9F9FE" stroke-linecap="round" stroke-linejoin="round"/>
<path d="M12.0201 16.0801C12.0201 16.0801 11.5629 16.7801 10.4201 16.7801C9.27721 16.7801 8.82007 16.0801 8.82007 16.0801" stroke="#F9F9FE" stroke-linecap="round" stroke-linejoin="round"/>
</svg>
